<svg width="1100" height="260" viewBox="0 0 1100 260" fill="none" xmlns="http://www.w3.org/2000/svg" role="img" aria-labelledby="title desc">
  <title id="title">ZK-Access Wordmark</title>
  <desc id="desc">ZK-Access logo with shield icon and wordmark</desc>

  <g transform="translate(12,8)">
    <rect x="26" y="34" width="190" height="190" rx="42" fill="#1A1A2E"/>
    <rect x="16" y="24" width="190" height="190" rx="42" fill="#FF6B6B" stroke="#1A1A2E" stroke-width="8"/>
    <path d="M111 58C141 58 167 69 167 69V119C167 154 145 184 111 198C77 184 55 154 55 119V69C55 69 81 58 111 58Z" fill="#A855F7" stroke="#1A1A2E" stroke-width="8"/>
    <path d="M80 95H142" stroke="#1A1A2E" stroke-width="8" stroke-linecap="round"/>
    <path d="M80 159H142" stroke="#1A1A2E" stroke-width="8" stroke-linecap="round"/>
    <path d="M82 96L140 158" stroke="#1A1A2E" stroke-width="8" stroke-linecap="round"/>
    <path d="M140 96L82 158" stroke="#1A1A2E" stroke-width="8" stroke-linecap="round"/>
  </g>

  <text x="250" y="146" font-family="'Space Grotesk', Inter, system-ui, sans-serif" font-size="106" font-weight="800" letter-spacing="-1.2" fill="#1A1A2E">ZK-Access</text>
  <rect x="252" y="165" width="386" height="14" rx="7" fill="#84CC16" stroke="#1A1A2E" stroke-width="6"/>
</svg>
