<svg width="1280" height="300" viewBox="0 0 1280 300" fill="none" xmlns="http://www.w3.org/2000/svg" role="img" aria-labelledby="title desc">
  <title id="title">ZK-Access Professional Wordmark</title>
  <desc id="desc">Professional ZK-Access brand lockup</desc>

  <g transform="translate(20,18)">
    <rect x="12" y="12" width="220" height="220" rx="50" fill="#FFFBF0" stroke="#1A1A2E" stroke-width="10"/>
    <path d="M122 40C156 40 184 53 184 53V113C184 153 160 186 122 206C84 186 60 153 60 113V53C60 53 88 40 122 40Z" fill="#A855F7" stroke="#1A1A2E" stroke-width="8"/>
    <path d="M88 84H157L88 167H157" stroke="#FFFBF0" stroke-width="16" stroke-linecap="round" stroke-linejoin="round"/>
    <circle cx="165" cy="174" r="17" fill="#84CC16" stroke="#1A1A2E" stroke-width="6"/>
    <path d="M157 174L163 180L173 168" stroke="#1A1A2E" stroke-width="5" stroke-linecap="round" stroke-linejoin="round"/>
  </g>

  <text x="286" y="142" font-family="Inter, Space Grotesk, system-ui, sans-serif" font-size="118" font-weight="800" letter-spacing="-1.5" fill="#1A1A2E">ZK-Access</text>
  <text x="292" y="196" font-family="Inter, system-ui, sans-serif" font-size="38" font-weight="600" letter-spacing="1.2" fill="#6B7280">PRIVATE CREDENTIAL PROOFS ON ALEO</text>
  <rect x="292" y="216" width="560" height="14" rx="7" fill="#84CC16"/>
</svg>
